<mxfile host="app.diagrams.net" agent="Mozilla/5.0 (Windows NT 10.0; Win64; x64) AppleWebKit/537.36 (KHTML, like Gecko) Chrome/126.0.0.0 Safari/537.36 OPR/112.0.0.0" version="24.7.7">
  <diagram name="Página-1" id="GP0WkGnXSOGQIO_qLedQ">
    <mxGraphModel dx="1639" dy="898" grid="1" gridSize="10" guides="1" tooltips="1" connect="1" arrows="1" fold="1" page="1" pageScale="1" pageWidth="827" pageHeight="1169" math="0" shadow="0">
      <root>
        <mxCell id="0" />
        <mxCell id="1" parent="0" />
        <mxCell id="KG4uBOQNovoIK61h-F2z-2" value="" style="rounded=0;whiteSpace=wrap;html=1;" vertex="1" parent="1">
          <mxGeometry x="330" y="40" width="470" height="710" as="geometry" />
        </mxCell>
        <mxCell id="KG4uBOQNovoIK61h-F2z-3" value="Cadastro de clientes" style="ellipse;whiteSpace=wrap;html=1;" vertex="1" parent="1">
          <mxGeometry x="350" y="50" width="120" height="70" as="geometry" />
        </mxCell>
        <mxCell id="KG4uBOQNovoIK61h-F2z-4" value="Solicitar estorno" style="ellipse;whiteSpace=wrap;html=1;" vertex="1" parent="1">
          <mxGeometry x="350" y="235" width="120" height="70" as="geometry" />
        </mxCell>
        <mxCell id="KG4uBOQNovoIK61h-F2z-5" value="Autenticação e autorização segura&lt;span style=&quot;color: rgba(0, 0, 0, 0); font-family: monospace; font-size: 0px; text-align: start; text-wrap: nowrap;&quot;&gt;%3CmxGraphModel%3E%3Croot%3E%3CmxCell%20id%3D%220%22%2F%3E%3CmxCell%20id%3D%221%22%20parent%3D%220%22%2F%3E%3CmxCell%20id%3D%222%22%20value%3D%22Solicitar%20estorno%22%20style%3D%22ellipse%3BwhiteSpace%3Dwrap%3Bhtml%3D1%3B%22%20vertex%3D%221%22%20parent%3D%221%22%3E%3CmxGeometry%20x%3D%22200%22%20y%3D%22585%22%20width%3D%22120%22%20height%3D%2270%22%20as%3D%22geometry%22%2F%3E%3C%2FmxCell%3E%3C%2Froot%3E%3C%2FmxGraphModel%3E&lt;/span&gt;" style="ellipse;whiteSpace=wrap;html=1;" vertex="1" parent="1">
          <mxGeometry x="350" y="420" width="120" height="70" as="geometry" />
        </mxCell>
        <mxCell id="KG4uBOQNovoIK61h-F2z-6" value="Acompanhar status do pedido" style="ellipse;whiteSpace=wrap;html=1;" vertex="1" parent="1">
          <mxGeometry x="350" y="540" width="120" height="70" as="geometry" />
        </mxCell>
        <mxCell id="KG4uBOQNovoIK61h-F2z-7" value="Visualizar carrinho de compras" style="ellipse;whiteSpace=wrap;html=1;" vertex="1" parent="1">
          <mxGeometry x="510" y="50" width="120" height="70" as="geometry" />
        </mxCell>
        <mxCell id="KG4uBOQNovoIK61h-F2z-8" value="Emitir relatórios de venda&lt;span style=&quot;color: rgba(0, 0, 0, 0); font-family: monospace; font-size: 0px; text-align: start; text-wrap: nowrap;&quot;&gt;%3CmxGraphModel%3E%3Croot%3E%3CmxCell%20id%3D%220%22%2F%3E%3CmxCell%20id%3D%221%22%20parent%3D%220%22%2F%3E%3CmxCell%20id%3D%222%22%20value%3D%22Visualizar%20carrinho%20de%20compras%22%20style%3D%22ellipse%3BwhiteSpace%3Dwrap%3Bhtml%3D1%3B%22%20vertex%3D%221%22%20parent%3D%221%22%3E%3CmxGeometry%20x%3D%22570%22%20y%3D%22585%22%20width%3D%22120%22%20height%3D%2270%22%20as%3D%22geometry%22%2F%3E%3C%2FmxCell%3E%3C%2Froot%3E%3C%2FmxGraphModel%3E&lt;/span&gt;" style="ellipse;whiteSpace=wrap;html=1;" vertex="1" parent="1">
          <mxGeometry x="650" y="235" width="120" height="70" as="geometry" />
        </mxCell>
        <mxCell id="KG4uBOQNovoIK61h-F2z-9" value="Atualizar estoque" style="ellipse;whiteSpace=wrap;html=1;" vertex="1" parent="1">
          <mxGeometry x="350" y="150" width="120" height="70" as="geometry" />
        </mxCell>
        <mxCell id="KG4uBOQNovoIK61h-F2z-10" value="Selecionar produto" style="ellipse;whiteSpace=wrap;html=1;" vertex="1" parent="1">
          <mxGeometry x="650" y="540" width="120" height="70" as="geometry" />
        </mxCell>
        <mxCell id="KG4uBOQNovoIK61h-F2z-11" value="Fazer login" style="ellipse;whiteSpace=wrap;html=1;" vertex="1" parent="1">
          <mxGeometry x="354" y="655" width="120" height="70" as="geometry" />
        </mxCell>
        <mxCell id="KG4uBOQNovoIK61h-F2z-12" value="Atualiz&lt;span style=&quot;color: rgba(0, 0, 0, 0); font-family: monospace; font-size: 0px; text-align: start; text-wrap: nowrap;&quot;&gt;%3CmxGraphModel%3E%3Croot%3E%3CmxCell%20id%3D%220%22%2F%3E%3CmxCell%20id%3D%221%22%20parent%3D%220%22%2F%3E%3CmxCell%20id%3D%222%22%20value%3D%22Fazer%20login%22%20style%3D%22ellipse%3BwhiteSpace%3Dwrap%3Bhtml%3D1%3B%22%20vertex%3D%221%22%20parent%3D%221%22%3E%3CmxGeometry%20x%3D%22370%22%20y%3D%22670%22%20width%3D%22120%22%20height%3D%2270%22%20as%3D%22geometry%22%2F%3E%3C%2FmxCell%3E%3C%2Froot%3E%3C%2FmxGraphModel%3E&lt;/span&gt;ar status do pedido" style="ellipse;whiteSpace=wrap;html=1;" vertex="1" parent="1">
          <mxGeometry x="650" y="50" width="120" height="70" as="geometry" />
        </mxCell>
        <mxCell id="KG4uBOQNovoIK61h-F2z-13" value="Gerenciar devolução do produto" style="ellipse;whiteSpace=wrap;html=1;" vertex="1" parent="1">
          <mxGeometry x="650" y="145" width="120" height="70" as="geometry" />
        </mxCell>
        <mxCell id="KG4uBOQNovoIK61h-F2z-14" value="Emitir relatórios em tempo real&lt;span style=&quot;color: rgba(0, 0, 0, 0); font-family: monospace; font-size: 0px; text-align: start; text-wrap: nowrap;&quot;&gt;%3CmxGraphModel%3E%3Croot%3E%3CmxCell%20id%3D%220%22%2F%3E%3CmxCell%20id%3D%221%22%20parent%3D%220%22%2F%3E%3CmxCell%20id%3D%222%22%20value%3D%22Gerenciar%20devolu%C3%A7%C3%A3o%20do%20produto%22%20style%3D%22ellipse%3BwhiteSpace%3Dwrap%3Bhtml%3D1%3B%22%20vertex%3D%221%22%20parent%3D%221%22%3E%3CmxGeometry%20x%3D%22640%22%20y%3D%22670%22%20width%3D%22120%22%20height%3D%2270%22%20as%3D%22geometry%22%2F%3E%3C%2FmxCell%3E%3C%2Froot%3E%3C%2FmxGraphModel%3E&lt;/span&gt;" style="ellipse;whiteSpace=wrap;html=1;" vertex="1" parent="1">
          <mxGeometry x="650" y="650" width="120" height="70" as="geometry" />
        </mxCell>
        <mxCell id="KG4uBOQNovoIK61h-F2z-15" value="Gerenciamento de perfil" style="ellipse;whiteSpace=wrap;html=1;" vertex="1" parent="1">
          <mxGeometry x="350" y="330" width="120" height="70" as="geometry" />
        </mxCell>
        <mxCell id="KG4uBOQNovoIK61h-F2z-16" value="Confirmar Pagamento" style="ellipse;whiteSpace=wrap;html=1;" vertex="1" parent="1">
          <mxGeometry x="650" y="340" width="120" height="70" as="geometry" />
        </mxCell>
        <mxCell id="KG4uBOQNovoIK61h-F2z-17" value="Efetuar pagamento" style="ellipse;whiteSpace=wrap;html=1;" vertex="1" parent="1">
          <mxGeometry x="497" y="650" width="120" height="70" as="geometry" />
        </mxCell>
        <mxCell id="KG4uBOQNovoIK61h-F2z-18" value="Processar pedido" style="ellipse;whiteSpace=wrap;html=1;" vertex="1" parent="1">
          <mxGeometry x="650" y="430" width="120" height="70" as="geometry" />
        </mxCell>
        <mxCell id="KG4uBOQNovoIK61h-F2z-47" style="edgeStyle=orthogonalEdgeStyle;rounded=0;orthogonalLoop=1;jettySize=auto;html=1;exitX=1;exitY=0.3333333333333333;exitDx=0;exitDy=0;exitPerimeter=0;entryX=0;entryY=0.5;entryDx=0;entryDy=0;fillColor=#f8cecc;strokeColor=#b85450;" edge="1" parent="1" source="KG4uBOQNovoIK61h-F2z-19" target="KG4uBOQNovoIK61h-F2z-3">
          <mxGeometry relative="1" as="geometry" />
        </mxCell>
        <mxCell id="KG4uBOQNovoIK61h-F2z-48" style="edgeStyle=orthogonalEdgeStyle;rounded=0;orthogonalLoop=1;jettySize=auto;html=1;exitX=1;exitY=0.3333333333333333;exitDx=0;exitDy=0;exitPerimeter=0;entryX=0;entryY=0.5;entryDx=0;entryDy=0;fillColor=#f8cecc;strokeColor=#b85450;" edge="1" parent="1" source="KG4uBOQNovoIK61h-F2z-19" target="KG4uBOQNovoIK61h-F2z-4">
          <mxGeometry relative="1" as="geometry" />
        </mxCell>
        <mxCell id="KG4uBOQNovoIK61h-F2z-49" style="edgeStyle=orthogonalEdgeStyle;rounded=0;orthogonalLoop=1;jettySize=auto;html=1;exitX=1;exitY=0.3333333333333333;exitDx=0;exitDy=0;exitPerimeter=0;entryX=0;entryY=0.5;entryDx=0;entryDy=0;fillColor=#f8cecc;strokeColor=#b85450;" edge="1" parent="1" source="KG4uBOQNovoIK61h-F2z-19" target="KG4uBOQNovoIK61h-F2z-5">
          <mxGeometry relative="1" as="geometry" />
        </mxCell>
        <mxCell id="KG4uBOQNovoIK61h-F2z-53" style="edgeStyle=orthogonalEdgeStyle;rounded=0;orthogonalLoop=1;jettySize=auto;html=1;exitX=1;exitY=0.3333333333333333;exitDx=0;exitDy=0;exitPerimeter=0;entryX=1;entryY=0.5;entryDx=0;entryDy=0;fillColor=#f8cecc;strokeColor=#b85450;" edge="1" parent="1">
          <mxGeometry relative="1" as="geometry">
            <mxPoint x="86" y="300" as="sourcePoint" />
            <mxPoint x="775" y="270" as="targetPoint" />
            <Array as="points">
              <mxPoint x="215" y="300" />
              <mxPoint x="215" y="800" />
              <mxPoint x="795" y="800" />
              <mxPoint x="795" y="270" />
            </Array>
          </mxGeometry>
        </mxCell>
        <mxCell id="KG4uBOQNovoIK61h-F2z-56" style="edgeStyle=orthogonalEdgeStyle;rounded=0;orthogonalLoop=1;jettySize=auto;html=1;exitX=1;exitY=0.3333333333333333;exitDx=0;exitDy=0;exitPerimeter=0;entryX=0;entryY=0.5;entryDx=0;entryDy=0;fillColor=#f8cecc;strokeColor=#b85450;" edge="1" parent="1" source="KG4uBOQNovoIK61h-F2z-19" target="KG4uBOQNovoIK61h-F2z-11">
          <mxGeometry relative="1" as="geometry">
            <Array as="points">
              <mxPoint x="218" y="300" />
              <mxPoint x="218" y="690" />
            </Array>
          </mxGeometry>
        </mxCell>
        <mxCell id="KG4uBOQNovoIK61h-F2z-64" style="edgeStyle=orthogonalEdgeStyle;rounded=0;orthogonalLoop=1;jettySize=auto;html=1;exitX=1;exitY=0.3333333333333333;exitDx=0;exitDy=0;exitPerimeter=0;entryX=0.5;entryY=0;entryDx=0;entryDy=0;fillColor=#f8cecc;strokeColor=#b85450;" edge="1" parent="1" source="KG4uBOQNovoIK61h-F2z-19" target="KG4uBOQNovoIK61h-F2z-15">
          <mxGeometry relative="1" as="geometry">
            <Array as="points">
              <mxPoint x="81" y="310" />
              <mxPoint x="410" y="310" />
            </Array>
          </mxGeometry>
        </mxCell>
        <mxCell id="KG4uBOQNovoIK61h-F2z-19" value="Administrador&lt;div&gt;&lt;br&gt;&lt;/div&gt;" style="shape=umlActor;verticalLabelPosition=bottom;verticalAlign=top;html=1;outlineConnect=0;fillColor=#f8cecc;strokeColor=#b85450;" vertex="1" parent="1">
          <mxGeometry x="51" y="280" width="30" height="60" as="geometry" />
        </mxCell>
        <mxCell id="KG4uBOQNovoIK61h-F2z-45" style="edgeStyle=orthogonalEdgeStyle;rounded=0;orthogonalLoop=1;jettySize=auto;html=1;exitX=1;exitY=0.3333333333333333;exitDx=0;exitDy=0;exitPerimeter=0;entryX=0.5;entryY=0;entryDx=0;entryDy=0;fillColor=#e1d5e7;strokeColor=#9673a6;" edge="1" parent="1" source="KG4uBOQNovoIK61h-F2z-23" target="KG4uBOQNovoIK61h-F2z-3">
          <mxGeometry relative="1" as="geometry">
            <Array as="points">
              <mxPoint x="130" y="170" />
              <mxPoint x="130" y="30" />
              <mxPoint x="410" y="30" />
            </Array>
          </mxGeometry>
        </mxCell>
        <mxCell id="KG4uBOQNovoIK61h-F2z-51" style="edgeStyle=orthogonalEdgeStyle;rounded=0;orthogonalLoop=1;jettySize=auto;html=1;exitX=1;exitY=0.3333333333333333;exitDx=0;exitDy=0;exitPerimeter=0;entryX=0;entryY=0.5;entryDx=0;entryDy=0;fillColor=#e1d5e7;strokeColor=#9673a6;" edge="1" parent="1" source="KG4uBOQNovoIK61h-F2z-23" target="KG4uBOQNovoIK61h-F2z-6">
          <mxGeometry relative="1" as="geometry">
            <Array as="points">
              <mxPoint x="130" y="170" />
              <mxPoint x="130" y="575" />
            </Array>
          </mxGeometry>
        </mxCell>
        <mxCell id="KG4uBOQNovoIK61h-F2z-52" style="edgeStyle=orthogonalEdgeStyle;rounded=0;orthogonalLoop=1;jettySize=auto;html=1;exitX=1;exitY=0.3333333333333333;exitDx=0;exitDy=0;exitPerimeter=0;entryX=0.5;entryY=0;entryDx=0;entryDy=0;fillColor=#e1d5e7;strokeColor=#9673a6;" edge="1" parent="1" source="KG4uBOQNovoIK61h-F2z-23" target="KG4uBOQNovoIK61h-F2z-2">
          <mxGeometry relative="1" as="geometry">
            <Array as="points">
              <mxPoint x="130" y="170" />
              <mxPoint x="130" y="10" />
              <mxPoint x="565" y="10" />
            </Array>
          </mxGeometry>
        </mxCell>
        <mxCell id="KG4uBOQNovoIK61h-F2z-55" style="edgeStyle=orthogonalEdgeStyle;rounded=0;orthogonalLoop=1;jettySize=auto;html=1;exitX=1;exitY=0.3333333333333333;exitDx=0;exitDy=0;exitPerimeter=0;entryX=1;entryY=0.5;entryDx=0;entryDy=0;fillColor=#e1d5e7;strokeColor=#9673a6;" edge="1" parent="1" source="KG4uBOQNovoIK61h-F2z-23" target="KG4uBOQNovoIK61h-F2z-10">
          <mxGeometry relative="1" as="geometry">
            <Array as="points">
              <mxPoint x="130" y="170" />
              <mxPoint x="130" y="10" />
              <mxPoint x="810" y="10" />
              <mxPoint x="810" y="575" />
            </Array>
          </mxGeometry>
        </mxCell>
        <mxCell id="KG4uBOQNovoIK61h-F2z-57" style="edgeStyle=orthogonalEdgeStyle;rounded=0;orthogonalLoop=1;jettySize=auto;html=1;exitX=1;exitY=0.3333333333333333;exitDx=0;exitDy=0;exitPerimeter=0;fillColor=#e1d5e7;strokeColor=#9673a6;" edge="1" parent="1" source="KG4uBOQNovoIK61h-F2z-23" target="KG4uBOQNovoIK61h-F2z-11">
          <mxGeometry relative="1" as="geometry">
            <Array as="points">
              <mxPoint x="130" y="170" />
              <mxPoint x="130" y="630" />
              <mxPoint x="414" y="630" />
            </Array>
          </mxGeometry>
        </mxCell>
        <mxCell id="KG4uBOQNovoIK61h-F2z-60" style="edgeStyle=orthogonalEdgeStyle;rounded=0;orthogonalLoop=1;jettySize=auto;html=1;exitX=1;exitY=0.3333333333333333;exitDx=0;exitDy=0;exitPerimeter=0;entryX=0;entryY=0.5;entryDx=0;entryDy=0;fillColor=#e1d5e7;strokeColor=#9673a6;" edge="1" parent="1" source="KG4uBOQNovoIK61h-F2z-23" target="KG4uBOQNovoIK61h-F2z-15">
          <mxGeometry relative="1" as="geometry">
            <Array as="points">
              <mxPoint x="130" y="170" />
              <mxPoint x="130" y="365" />
            </Array>
          </mxGeometry>
        </mxCell>
        <mxCell id="KG4uBOQNovoIK61h-F2z-76" style="edgeStyle=orthogonalEdgeStyle;rounded=0;orthogonalLoop=1;jettySize=auto;html=1;exitX=0;exitY=0.3333333333333333;exitDx=0;exitDy=0;exitPerimeter=0;fillColor=#e1d5e7;strokeColor=#9673a6;" edge="1" parent="1" source="KG4uBOQNovoIK61h-F2z-23" target="KG4uBOQNovoIK61h-F2z-24">
          <mxGeometry relative="1" as="geometry">
            <Array as="points">
              <mxPoint x="40" y="170" />
              <mxPoint x="40" y="125" />
              <mxPoint x="66" y="125" />
            </Array>
          </mxGeometry>
        </mxCell>
        <mxCell id="KG4uBOQNovoIK61h-F2z-23" value="Cliente" style="shape=umlActor;verticalLabelPosition=bottom;verticalAlign=top;html=1;outlineConnect=0;fillColor=#e1d5e7;strokeColor=#9673a6;" vertex="1" parent="1">
          <mxGeometry x="51" y="150" width="30" height="60" as="geometry" />
        </mxCell>
        <mxCell id="KG4uBOQNovoIK61h-F2z-54" style="edgeStyle=orthogonalEdgeStyle;rounded=0;orthogonalLoop=1;jettySize=auto;html=1;exitX=1;exitY=0.3333333333333333;exitDx=0;exitDy=0;exitPerimeter=0;entryX=0;entryY=0.5;entryDx=0;entryDy=0;fillColor=#dae8fc;strokeColor=#6c8ebf;" edge="1" parent="1" source="KG4uBOQNovoIK61h-F2z-24" target="KG4uBOQNovoIK61h-F2z-9">
          <mxGeometry relative="1" as="geometry">
            <Array as="points">
              <mxPoint x="180" y="60" />
              <mxPoint x="180" y="185" />
            </Array>
          </mxGeometry>
        </mxCell>
        <mxCell id="KG4uBOQNovoIK61h-F2z-58" style="edgeStyle=orthogonalEdgeStyle;rounded=0;orthogonalLoop=1;jettySize=auto;html=1;exitX=1;exitY=0.3333333333333333;exitDx=0;exitDy=0;exitPerimeter=0;entryX=0.5;entryY=1;entryDx=0;entryDy=0;fillColor=#dae8fc;strokeColor=#6c8ebf;" edge="1" parent="1" source="KG4uBOQNovoIK61h-F2z-24" target="KG4uBOQNovoIK61h-F2z-11">
          <mxGeometry relative="1" as="geometry">
            <Array as="points">
              <mxPoint x="180" y="60" />
              <mxPoint x="180" y="745" />
              <mxPoint x="414" y="745" />
            </Array>
          </mxGeometry>
        </mxCell>
        <mxCell id="KG4uBOQNovoIK61h-F2z-61" style="edgeStyle=orthogonalEdgeStyle;rounded=0;orthogonalLoop=1;jettySize=auto;html=1;exitX=1;exitY=0.3333333333333333;exitDx=0;exitDy=0;exitPerimeter=0;entryX=0;entryY=0;entryDx=0;entryDy=0;fillColor=#dae8fc;strokeColor=#6c8ebf;" edge="1" parent="1" source="KG4uBOQNovoIK61h-F2z-24" target="KG4uBOQNovoIK61h-F2z-15">
          <mxGeometry relative="1" as="geometry">
            <Array as="points">
              <mxPoint x="180" y="60" />
              <mxPoint x="180" y="340" />
            </Array>
          </mxGeometry>
        </mxCell>
        <mxCell id="KG4uBOQNovoIK61h-F2z-63" style="edgeStyle=orthogonalEdgeStyle;rounded=0;orthogonalLoop=1;jettySize=auto;html=1;exitX=1;exitY=0.3333333333333333;exitDx=0;exitDy=0;exitPerimeter=0;entryX=0.5;entryY=1;entryDx=0;entryDy=0;fillColor=#dae8fc;strokeColor=#6c8ebf;" edge="1" parent="1" source="KG4uBOQNovoIK61h-F2z-24" target="KG4uBOQNovoIK61h-F2z-14">
          <mxGeometry relative="1" as="geometry">
            <Array as="points">
              <mxPoint x="180" y="60" />
              <mxPoint x="180" y="840" />
              <mxPoint x="710" y="840" />
            </Array>
          </mxGeometry>
        </mxCell>
        <mxCell id="KG4uBOQNovoIK61h-F2z-24" value="Gerente de estoque" style="shape=umlActor;verticalLabelPosition=bottom;verticalAlign=top;html=1;outlineConnect=0;fillColor=#dae8fc;strokeColor=#6c8ebf;" vertex="1" parent="1">
          <mxGeometry x="51" y="40" width="30" height="60" as="geometry" />
        </mxCell>
        <mxCell id="KG4uBOQNovoIK61h-F2z-62" style="edgeStyle=orthogonalEdgeStyle;rounded=0;orthogonalLoop=1;jettySize=auto;html=1;exitX=1;exitY=0.3333333333333333;exitDx=0;exitDy=0;exitPerimeter=0;entryX=0;entryY=1;entryDx=0;entryDy=0;fillColor=#d5e8d4;strokeColor=#82b366;" edge="1" parent="1" source="KG4uBOQNovoIK61h-F2z-25" target="KG4uBOQNovoIK61h-F2z-15">
          <mxGeometry relative="1" as="geometry">
            <Array as="points">
              <mxPoint x="150" y="420" />
              <mxPoint x="150" y="390" />
            </Array>
          </mxGeometry>
        </mxCell>
        <mxCell id="KG4uBOQNovoIK61h-F2z-67" style="edgeStyle=orthogonalEdgeStyle;rounded=0;orthogonalLoop=1;jettySize=auto;html=1;exitX=1;exitY=0.3333333333333333;exitDx=0;exitDy=0;exitPerimeter=0;entryX=1;entryY=0.5;entryDx=0;entryDy=0;fillColor=#d5e8d4;strokeColor=#82b366;" edge="1" parent="1" source="KG4uBOQNovoIK61h-F2z-25" target="KG4uBOQNovoIK61h-F2z-18">
          <mxGeometry relative="1" as="geometry">
            <Array as="points">
              <mxPoint x="150" y="420" />
              <mxPoint x="150" y="860" />
              <mxPoint x="870" y="860" />
              <mxPoint x="870" y="465" />
            </Array>
          </mxGeometry>
        </mxCell>
        <mxCell id="KG4uBOQNovoIK61h-F2z-75" style="edgeStyle=orthogonalEdgeStyle;rounded=0;orthogonalLoop=1;jettySize=auto;html=1;exitX=0;exitY=0.3333333333333333;exitDx=0;exitDy=0;exitPerimeter=0;entryX=0;entryY=1;entryDx=0;entryDy=0;entryPerimeter=0;fillColor=#d5e8d4;strokeColor=#82b366;" edge="1" parent="1" source="KG4uBOQNovoIK61h-F2z-25" target="KG4uBOQNovoIK61h-F2z-19">
          <mxGeometry relative="1" as="geometry">
            <mxPoint x="30" y="300" as="targetPoint" />
          </mxGeometry>
        </mxCell>
        <mxCell id="KG4uBOQNovoIK61h-F2z-25" value="Vendedor" style="shape=umlActor;verticalLabelPosition=bottom;verticalAlign=top;html=1;outlineConnect=0;fillColor=#d5e8d4;strokeColor=#82b366;" vertex="1" parent="1">
          <mxGeometry x="51" y="400" width="30" height="60" as="geometry" />
        </mxCell>
        <mxCell id="KG4uBOQNovoIK61h-F2z-68" style="edgeStyle=orthogonalEdgeStyle;rounded=0;orthogonalLoop=1;jettySize=auto;html=1;exitX=1;exitY=0.3333333333333333;exitDx=0;exitDy=0;exitPerimeter=0;entryX=1;entryY=0.5;entryDx=0;entryDy=0;strokeColor=#FFCCFF;" edge="1" parent="1" source="KG4uBOQNovoIK61h-F2z-26" target="KG4uBOQNovoIK61h-F2z-16">
          <mxGeometry relative="1" as="geometry">
            <Array as="points">
              <mxPoint x="110" y="545" />
              <mxPoint x="110" y="980" />
              <mxPoint x="850" y="980" />
              <mxPoint x="850" y="375" />
            </Array>
          </mxGeometry>
        </mxCell>
        <mxCell id="KG4uBOQNovoIK61h-F2z-69" style="edgeStyle=orthogonalEdgeStyle;rounded=0;orthogonalLoop=1;jettySize=auto;html=1;exitX=1;exitY=0.3333333333333333;exitDx=0;exitDy=0;exitPerimeter=0;entryX=0.5;entryY=1;entryDx=0;entryDy=0;strokeColor=#FFCCFF;" edge="1" parent="1" source="KG4uBOQNovoIK61h-F2z-26" target="KG4uBOQNovoIK61h-F2z-17">
          <mxGeometry relative="1" as="geometry">
            <Array as="points">
              <mxPoint x="110" y="545" />
              <mxPoint x="110" y="940" />
              <mxPoint x="557" y="940" />
            </Array>
          </mxGeometry>
        </mxCell>
        <mxCell id="KG4uBOQNovoIK61h-F2z-26" value="Sistema de Pagamentos" style="shape=umlActor;verticalLabelPosition=bottom;verticalAlign=top;html=1;outlineConnect=0;fillColor=#FFCCFF;strokeColor=#FFCCFF;" vertex="1" parent="1">
          <mxGeometry x="51" y="524.5" width="30" height="60" as="geometry" />
        </mxCell>
        <mxCell id="KG4uBOQNovoIK61h-F2z-65" style="edgeStyle=orthogonalEdgeStyle;rounded=0;orthogonalLoop=1;jettySize=auto;html=1;exitX=1;exitY=1;exitDx=0;exitDy=0;exitPerimeter=0;entryX=1;entryY=0.5;entryDx=0;entryDy=0;fillColor=#fa6800;strokeColor=#6666FF;" edge="1" parent="1" source="KG4uBOQNovoIK61h-F2z-27" target="KG4uBOQNovoIK61h-F2z-13">
          <mxGeometry relative="1" as="geometry">
            <Array as="points">
              <mxPoint x="81" y="880" />
              <mxPoint x="820" y="880" />
              <mxPoint x="820" y="180" />
            </Array>
          </mxGeometry>
        </mxCell>
        <mxCell id="KG4uBOQNovoIK61h-F2z-66" style="edgeStyle=orthogonalEdgeStyle;rounded=0;orthogonalLoop=1;jettySize=auto;html=1;exitX=1;exitY=1;exitDx=0;exitDy=0;exitPerimeter=0;entryX=1;entryY=0.5;entryDx=0;entryDy=0;strokeColor=#6666FF;" edge="1" parent="1" source="KG4uBOQNovoIK61h-F2z-27" target="KG4uBOQNovoIK61h-F2z-12">
          <mxGeometry relative="1" as="geometry">
            <Array as="points">
              <mxPoint x="81" y="880" />
              <mxPoint x="820" y="880" />
              <mxPoint x="820" y="85" />
            </Array>
          </mxGeometry>
        </mxCell>
        <mxCell id="KG4uBOQNovoIK61h-F2z-27" value="Sistema de&amp;nbsp;&lt;div&gt;entrega/logística&lt;/div&gt;" style="shape=umlActor;verticalLabelPosition=bottom;verticalAlign=top;html=1;outlineConnect=0;fillColor=#6666FF;fontColor=#000000;strokeColor=#6666FF;" vertex="1" parent="1">
          <mxGeometry x="51" y="642.5" width="30" height="60" as="geometry" />
        </mxCell>
        <mxCell id="KG4uBOQNovoIK61h-F2z-59" style="edgeStyle=orthogonalEdgeStyle;rounded=0;orthogonalLoop=1;jettySize=auto;html=1;exitX=1;exitY=0.3333333333333333;exitDx=0;exitDy=0;exitPerimeter=0;entryX=0.25;entryY=1;entryDx=0;entryDy=0;entryPerimeter=0;fillColor=#d5e8d4;strokeColor=#82b366;" edge="1" parent="1" source="KG4uBOQNovoIK61h-F2z-25" target="KG4uBOQNovoIK61h-F2z-11">
          <mxGeometry relative="1" as="geometry">
            <Array as="points">
              <mxPoint x="150" y="420" />
              <mxPoint x="150" y="730" />
              <mxPoint x="384" y="730" />
            </Array>
          </mxGeometry>
        </mxCell>
        <mxCell id="KG4uBOQNovoIK61h-F2z-70" style="edgeStyle=orthogonalEdgeStyle;rounded=0;orthogonalLoop=1;jettySize=auto;html=1;exitX=0;exitY=0.3333333333333333;exitDx=0;exitDy=0;exitPerimeter=0;entryX=0;entryY=0.3333333333333333;entryDx=0;entryDy=0;entryPerimeter=0;fillColor=#dae8fc;strokeColor=#6c8ebf;" edge="1" parent="1" source="KG4uBOQNovoIK61h-F2z-24" target="KG4uBOQNovoIK61h-F2z-19">
          <mxGeometry relative="1" as="geometry">
            <Array as="points">
              <mxPoint x="20" y="60" />
              <mxPoint x="20" y="300" />
            </Array>
          </mxGeometry>
        </mxCell>
        <mxCell id="KG4uBOQNovoIK61h-F2z-72" style="edgeStyle=orthogonalEdgeStyle;rounded=0;orthogonalLoop=1;jettySize=auto;html=1;exitX=0;exitY=0.3333333333333333;exitDx=0;exitDy=0;exitPerimeter=0;entryX=0.5;entryY=0.5;entryDx=0;entryDy=0;entryPerimeter=0;fillColor=#e1d5e7;strokeColor=#9673a6;" edge="1" parent="1" source="KG4uBOQNovoIK61h-F2z-23" target="KG4uBOQNovoIK61h-F2z-19">
          <mxGeometry relative="1" as="geometry">
            <Array as="points">
              <mxPoint x="10" y="170" />
              <mxPoint x="10" y="310" />
            </Array>
          </mxGeometry>
        </mxCell>
        <mxCell id="KG4uBOQNovoIK61h-F2z-77" style="edgeStyle=orthogonalEdgeStyle;rounded=0;orthogonalLoop=1;jettySize=auto;html=1;exitX=0;exitY=0.3333333333333333;exitDx=0;exitDy=0;exitPerimeter=0;entryX=0;entryY=1;entryDx=0;entryDy=0;entryPerimeter=0;fillColor=#e1d5e7;strokeColor=#9673a6;" edge="1" parent="1" source="KG4uBOQNovoIK61h-F2z-23" target="KG4uBOQNovoIK61h-F2z-25">
          <mxGeometry relative="1" as="geometry">
            <Array as="points">
              <mxPoint x="10" y="170" />
              <mxPoint x="10" y="480" />
              <mxPoint x="51" y="480" />
            </Array>
          </mxGeometry>
        </mxCell>
        <mxCell id="KG4uBOQNovoIK61h-F2z-78" style="edgeStyle=orthogonalEdgeStyle;rounded=0;orthogonalLoop=1;jettySize=auto;html=1;exitX=0;exitY=0.3333333333333333;exitDx=0;exitDy=0;exitPerimeter=0;entryX=0;entryY=0.3333333333333333;entryDx=0;entryDy=0;entryPerimeter=0;fillColor=#e1d5e7;strokeColor=#9673a6;" edge="1" parent="1" source="KG4uBOQNovoIK61h-F2z-23" target="KG4uBOQNovoIK61h-F2z-26">
          <mxGeometry relative="1" as="geometry">
            <Array as="points">
              <mxPoint x="10" y="170" />
              <mxPoint x="10" y="545" />
            </Array>
          </mxGeometry>
        </mxCell>
        <mxCell id="KG4uBOQNovoIK61h-F2z-79" style="edgeStyle=orthogonalEdgeStyle;rounded=0;orthogonalLoop=1;jettySize=auto;html=1;exitX=0;exitY=0.3333333333333333;exitDx=0;exitDy=0;exitPerimeter=0;entryX=0;entryY=0.3333333333333333;entryDx=0;entryDy=0;entryPerimeter=0;fillColor=#e1d5e7;strokeColor=#9673a6;" edge="1" parent="1" source="KG4uBOQNovoIK61h-F2z-23" target="KG4uBOQNovoIK61h-F2z-27">
          <mxGeometry relative="1" as="geometry">
            <Array as="points">
              <mxPoint x="10" y="170" />
              <mxPoint x="10" y="663" />
            </Array>
          </mxGeometry>
        </mxCell>
        <mxCell id="KG4uBOQNovoIK61h-F2z-80" style="edgeStyle=orthogonalEdgeStyle;rounded=0;orthogonalLoop=1;jettySize=auto;html=1;exitX=0;exitY=0.3333333333333333;exitDx=0;exitDy=0;exitPerimeter=0;entryX=0;entryY=1;entryDx=0;entryDy=0;entryPerimeter=0;fillColor=#dae8fc;strokeColor=#6c8ebf;" edge="1" parent="1" source="KG4uBOQNovoIK61h-F2z-24" target="KG4uBOQNovoIK61h-F2z-27">
          <mxGeometry relative="1" as="geometry">
            <Array as="points">
              <mxPoint x="20" y="60" />
              <mxPoint x="20" y="723" />
              <mxPoint x="51" y="723" />
            </Array>
          </mxGeometry>
        </mxCell>
        <mxCell id="KG4uBOQNovoIK61h-F2z-81" style="edgeStyle=orthogonalEdgeStyle;rounded=0;orthogonalLoop=1;jettySize=auto;html=1;exitX=0;exitY=0.3333333333333333;exitDx=0;exitDy=0;exitPerimeter=0;entryX=0;entryY=1;entryDx=0;entryDy=0;entryPerimeter=0;fillColor=#d5e8d4;strokeColor=#82b366;" edge="1" parent="1" source="KG4uBOQNovoIK61h-F2z-25" target="KG4uBOQNovoIK61h-F2z-24">
          <mxGeometry relative="1" as="geometry">
            <Array as="points">
              <mxPoint x="31" y="420" />
              <mxPoint x="31" y="250" />
              <mxPoint x="30" y="250" />
              <mxPoint x="30" y="100" />
            </Array>
          </mxGeometry>
        </mxCell>
      </root>
    </mxGraphModel>
  </diagram>
</mxfile>
